<?xml version="1.0" standalone="no"?>
<!DOCTYPE svg PUBLIC "-//W3C//DTD SVG 20010904//EN"
 "http://www.w3.org/TR/2001/REC-SVG-20010904/DTD/svg10.dtd">
<svg version="1.0" xmlns="http://www.w3.org/2000/svg"
 width="1024.000000pt" height="1024.000000pt" viewBox="0 0 1024.000000 1024.000000"
 preserveAspectRatio="xMidYMid meet">

<g transform="translate(0.000000,1024.000000) scale(0.100000,-0.100000)"
fill="#000000" stroke="none">
<path d="M2568 7793 c6 -2 18 -2 25 0 6 3 1 5 -13 5 -14 0 -19 -2 -12 -5z"/>
<path d="M2489 7763 c-13 -16 -12 -17 4 -4 16 13 21 21 13 21 -2 0 -10 -8 -17
-17z"/>
<path d="M2411 7514 c0 -11 3 -14 6 -6 3 7 2 16 -1 19 -3 4 -6 -2 -5 -13z"/>
<path d="M2761 7454 c0 -11 3 -14 6 -6 3 7 2 16 -1 19 -3 4 -6 -2 -5 -13z"/>
<path d="M2772 7340 c0 -14 2 -19 5 -12 2 6 2 18 0 25 -3 6 -5 1 -5 -13z"/>
<path d="M2978 7273 c6 -2 18 -2 25 0 6 3 1 5 -13 5 -14 0 -19 -2 -12 -5z"/>
<path d="M2492 7160 c0 -14 2 -19 5 -12 2 6 2 18 0 25 -3 6 -5 1 -5 -13z"/>
<path d="M2752 6980 c0 -14 2 -19 5 -12 2 6 2 18 0 25 -3 6 -5 1 -5 -13z"/>
<path d="M2741 6854 c0 -11 3 -14 6 -6 3 7 2 16 -1 19 -3 4 -6 -2 -5 -13z"/>
<path d="M2732 6720 c0 -14 2 -19 5 -12 2 6 2 18 0 25 -3 6 -5 1 -5 -13z"/>
<path d="M8020 6580 c-25 -22 -40 -40 -35 -40 6 0 29 18 50 40 50 51 43 51
-15 0z"/>
<path d="M2452 6490 c0 -14 2 -19 5 -12 2 6 2 18 0 25 -3 6 -5 1 -5 -13z"/>
<path d="M2461 6344 c0 -11 3 -14 6 -6 3 7 2 16 -1 19 -3 4 -6 -2 -5 -13z"/>
<path d="M6678 6073 c7 -3 16 -2 19 1 4 3 -2 6 -13 5 -11 0 -14 -3 -6 -6z"/>
<path d="M6188 5993 c6 -2 18 -2 25 0 6 3 1 5 -13 5 -14 0 -19 -2 -12 -5z"/>
<path d="M6388 5983 c6 -2 18 -2 25 0 6 3 1 5 -13 5 -14 0 -19 -2 -12 -5z"/>
<path d="M6463 5983 c9 -2 23 -2 30 0 6 3 -1 5 -18 5 -16 0 -22 -2 -12 -5z"/>
<path d="M6220 5778 c-14 -5 -74 -23 -135 -38 -76 -19 -111 -33 -113 -44 -2
-10 6 -17 25 -21 108 -24 104 -3 101 -590 -3 -484 -3 -494 -24 -522 -12 -16
-38 -33 -60 -39 -22 -6 -39 -17 -39 -25 0 -11 37 -14 208 -17 202 -2 207 -2
207 18 0 13 -7 20 -19 20 -10 0 -33 5 -51 11 -61 22 -60 16 -60 669 0 324 -3
590 -7 589 -5 0 -19 -5 -33 -11z"/>
<path d="M3436 5635 c-3 -44 -7 -118 -8 -165 -2 -83 -2 -85 21 -85 21 0 26 8
41 60 43 157 98 195 291 203 115 4 116 4 122 -19 10 -37 8 -979 -3 -1023 -12
-54 -27 -66 -103 -79 -54 -9 -67 -15 -67 -29 0 -17 15 -18 267 -16 245 3 266
4 269 21 1 11 -4 17 -16 17 -11 0 -42 5 -70 11 -41 9 -55 17 -71 42 -18 31
-19 57 -19 556 l0 523 123 -4 c98 -3 130 -8 162 -25 68 -36 104 -87 129 -185
11 -45 17 -53 36 -53 22 0 23 2 21 90 0 50 -4 124 -7 165 l-6 75 -553 0 -553
0 -6 -80z"/>
<path d="M2492 5675 c0 -16 2 -22 5 -12 2 9 2 23 0 30 -3 6 -5 -1 -5 -18z"/>
<path d="M5628 5685 c-35 -19 -48 -44 -48 -90 0 -62 59 -101 127 -83 94 24 80
170 -17 183 -21 3 -46 -1 -62 -10z"/>
<path d="M2672 5490 c0 -14 2 -19 5 -12 2 6 2 18 0 25 -3 6 -5 1 -5 -13z"/>
<path d="M4861 5330 c-24 -5 -72 -22 -105 -38 -150 -70 -219 -199 -139 -262
38 -29 79 -26 115 11 30 30 31 31 24 104 -6 71 -6 74 20 94 36 29 135 29 181
1 52 -31 67 -71 71 -191 l4 -105 -113 -33 c-221 -64 -334 -137 -359 -232 -22
-80 12 -167 80 -202 27 -14 52 -17 111 -14 88 4 157 33 228 94 42 36 45 36 55
18 6 -11 29 -39 51 -62 69 -71 165 -69 246 5 31 27 37 38 28 48 -9 11 -16 11
-40 -1 -55 -29 -100 -15 -118 36 -7 20 -11 130 -11 301 0 287 -4 314 -53 366
-54 59 -169 84 -276 62z m169 -554 l0 -125 -33 -25 c-77 -59 -195 -74 -244
-32 -25 22 -28 30 -28 91 0 66 0 67 46 110 37 34 65 49 140 74 52 16 100 30
107 31 9 0 12 -31 12 -124z"/>
<path d="M6795 5326 c-120 -29 -235 -120 -287 -227 -89 -183 -55 -395 83 -523
97 -90 193 -122 340 -114 70 4 101 12 153 36 195 91 296 306 241 515 -21 81
-49 132 -106 192 -106 112 -269 159 -424 121z m191 -65 c121 -55 193 -254 165
-458 -27 -194 -114 -293 -256 -293 -51 0 -111 29 -152 71 -133 141 -138 473
-8 627 57 68 167 91 251 53z"/>
<path d="M7718 5335 c-2 -2 -65 -22 -139 -43 -93 -27 -135 -43 -137 -54 -2
-12 8 -18 39 -23 59 -10 86 -40 94 -106 11 -90 2 -521 -12 -545 -12 -21 -48
-40 -88 -46 -11 -2 -20 -10 -20 -18 0 -13 32 -15 208 -18 197 -2 207 -2 207
16 0 15 -9 21 -41 25 -23 3 -51 15 -63 27 -20 20 -21 32 -24 265 -3 271 -1
282 63 351 44 46 72 44 118 -6 28 -32 43 -40 70 -40 51 0 82 38 82 100 0 58
-28 94 -87 112 -79 24 -157 -27 -216 -143 l-32 -62 0 101 c0 89 -7 122 -22
107z"/>
<path d="M5680 5312 c-25 -8 -81 -25 -125 -37 -93 -24 -112 -49 -47 -60 23 -4
50 -17 63 -31 24 -25 24 -27 27 -299 3 -324 1 -337 -72 -357 -33 -9 -46 -17
-46 -30 0 -17 15 -18 205 -18 198 0 205 1 205 20 0 15 -7 20 -24 20 -42 0 -74
18 -91 49 -13 25 -15 85 -15 396 0 411 8 379 -80 347z"/>
<path d="M2512 5030 c0 -14 2 -19 5 -12 2 6 2 18 0 25 -3 6 -5 1 -5 -13z"/>
<path d="M2522 4580 c0 -14 2 -19 5 -12 2 6 2 18 0 25 -3 6 -5 1 -5 -13z"/>
<path d="M4870 4188 c-14 -5 -74 -23 -135 -38 -89 -23 -110 -32 -110 -46 0
-12 10 -20 30 -24 52 -11 74 -29 85 -70 7 -26 10 -203 8 -519 -3 -468 -3 -480
-24 -508 -13 -18 -35 -31 -62 -37 -30 -7 -42 -15 -42 -28 0 -17 14 -18 211
-18 190 0 210 2 207 16 -2 10 -22 23 -51 31 -74 22 -77 33 -77 336 l0 253 54
33 c146 88 272 81 330 -19 19 -32 21 -55 24 -259 2 -123 1 -239 -3 -257 -7
-41 -48 -92 -78 -96 -12 -2 -23 -11 -25 -20 -3 -17 12 -18 198 -18 186 0 201
1 198 17 -2 10 -12 19 -23 21 -40 6 -76 25 -88 46 -8 14 -14 109 -17 301 -5
257 -7 284 -26 325 -22 47 -69 95 -113 112 -14 6 -60 10 -101 10 -93 0 -160
-24 -258 -92 l-72 -49 0 305 c0 167 -3 304 -7 303 -5 0 -19 -5 -33 -11z"/>
<path d="M6680 4177 c-67 -15 -138 -55 -176 -99 -57 -68 -94 -189 -94 -309 l0
-47 -57 -18 c-46 -15 -59 -24 -61 -41 -3 -22 0 -23 57 -23 l61 0 0 -305 c0
-373 2 -365 -102 -399 -10 -3 -18 -12 -18 -21 0 -13 28 -15 211 -15 194 0 210
1 207 17 -2 11 -16 20 -38 23 -55 10 -78 27 -90 68 -6 22 -10 160 -10 335 l0
297 128 0 128 0 -1 38 -2 37 -128 3 -128 3 6 127 c3 79 11 144 22 172 45 126
143 133 199 15 28 -60 60 -81 106 -70 70 18 93 96 45 153 -48 57 -162 82 -265
59z"/>
<path d="M3965 4131 c-103 -25 -196 -92 -240 -172 -27 -49 -30 -62 -30 -149 0
-80 4 -102 24 -140 42 -81 108 -132 286 -221 90 -44 183 -97 206 -117 51 -44
78 -101 79 -165 0 -131 -97 -217 -246 -217 -156 0 -255 75 -306 231 -20 63
-24 69 -49 69 -31 0 -31 2 -8 -185 17 -140 12 -131 84 -149 312 -78 558 -11
654 177 31 60 35 76 35 145 -1 160 -54 220 -312 351 -251 128 -295 170 -296
286 -2 115 72 191 194 202 143 13 241 -55 297 -207 16 -42 26 -56 43 -58 l23
-4 -8 144 c-4 78 -10 146 -13 150 -27 26 -339 48 -417 29z"/>
<path d="M5914 4090 c-47 -19 -68 -85 -42 -133 18 -35 40 -46 86 -47 60 0 92
32 92 94 0 37 -5 48 -31 70 -31 26 -66 32 -105 16z"/>
<path d="M7107 3883 c-56 -85 -117 -144 -183 -177 -49 -25 -70 -47 -57 -60 4
-3 39 -6 80 -6 l73 0 0 -302 c0 -175 4 -319 10 -340 22 -77 116 -126 220 -114
63 7 164 53 199 90 21 22 22 26 7 32 -9 3 -34 -1 -56 -10 -57 -23 -141 -21
-172 4 -41 32 -48 86 -48 374 l0 266 130 0 130 0 0 41 0 40 -130 -3 -130 -3 0
118 c0 142 -9 148 -73 50z"/>
<path d="M5915 3705 c-60 -19 -123 -36 -138 -40 -43 -9 -30 -34 28 -53 33 -11
54 -25 63 -42 9 -19 12 -91 10 -297 l-3 -273 -26 -26 c-15 -14 -42 -29 -60
-33 -20 -4 -34 -13 -34 -21 0 -13 34 -15 208 -18 194 -2 208 -1 205 15 -2 12
-16 20 -41 24 -21 3 -48 16 -60 28 -22 21 -22 27 -25 396 -1 206 -6 374 -10
374 -4 -1 -56 -16 -117 -34z"/>
<path d="M2591 2834 c0 -11 3 -14 6 -6 3 7 2 16 -1 19 -3 4 -6 -2 -5 -13z"/>
<path d="M2582 2695 c0 -16 2 -22 5 -12 2 9 2 23 0 30 -3 6 -5 -1 -5 -18z"/>
</g>
</svg>
